<svg id="Layer_3" data-name="Layer 3" xmlns="http://www.w3.org/2000/svg" viewBox="0 0 2730.86 2399.18"><defs><style>.cls-1{fill:#353535;}.cls-2{fill:#e94647;}</style></defs><g id="Layer_7" data-name="Layer 7"><path class="cls-1" d="M1534.07,934.41a264.59,264.59,0,0,0-79.66,12.1c-169.12,48.4-270.43,235.2-229.9,418.21l74.77-21.93c-30.75-139.15,46.11-279.06,174.69-316.12s260,42.35,297.69,179.23l74.77-21.17c-41.23-152-171.2-251.83-312.36-250.32Z" transform="translate(-829 -934.39)"/></g><g id="Layer_6" data-name="Layer 6"><path class="cls-2" d="M2255.22,1086.42l-712.77,206.46L829,1500.09l379.43,1728.79,586.3-170.16c-5.6-31.77-.71-65,14.67-95.29l579.29-1086c16.07-29.5,40.52-50.67,68.48-61.26ZM3204.87,1128,2666.8,1284.56l-299.07,86.21,121.58,438.62a116.79,116.79,0,0,1,74.07,18.15L2968,2080.13c61.49,38.57,82.46,122.51,46.83,189.06l-190.09,356.19,162.83-46.88,572.31-166.38Zm-321.45,178.47c18.18.76,34.95,14.37,39.84,33.28,5.59,24.2-7.69,49.16-29.35,55.21-22.36,6.8-45.43-7.56-51-31.77-6.29-24.2,7-48.4,29.35-55.2a50.15,50.15,0,0,1,11.17-1.52ZM1829,1323.13c24.45,0,46.11,18.14,52.41,43.86,7.69,31.76-9.78,65-39.14,73.35s-59.39-10.59-67.08-42.35,9.78-64.28,39.14-72.6a49.48,49.48,0,0,1,14.67-2.26Zm682.71,91.5c18.87,0,34.94,13.61,39.83,33.27,5.6,24.2-7,48.41-29.34,55.22-22.36,6-44.72-8.33-51-31.77-5.6-24.2,7-49.16,29.34-55.21,3.49-1.51,7.69-1.51,11.18-1.51Zm-1175.35,51.42c24.45,0,46.11,18.15,52.41,43.87,8.38,31.76-9.09,64.28-38.45,73.35-29.34,8.33-59.39-10.58-67.77-42.34-7.69-31.77,9.78-64.29,39.13-73.36a96.05,96.05,0,0,1,14.68-1.52Z" transform="translate(-829 -934.39)"/></g><g id="Layer_5" data-name="Layer 5"><path class="cls-1" d="M2654.22,1009.28c-19.56.76-39.83,3-60.09,9.08-127.18,37.05-204,177.71-173.3,316.11l55.9-16.64c-22.36-105.12,35.64-210.24,132.07-238.22,97.14-28.73,196.36,31.76,225,134.61l55.9-15.88c-30.74-114.94-129.27-189.82-235.49-189.06Z" transform="translate(-829 -934.39)"/></g><g id="Layer_4" data-name="Layer 4"><path class="cls-1" d="M2501.19,1872.16c-40.53-.76-81.05,21.18-102.72,62.77l-524.09,982.36c-32.15,59.75-13.28,136.14,41.93,170.17l366.86,229.14c55.2,34.78,125.08,14.36,157.22-45.37l524.1-982.38c32.14-60.5,13.27-136.12-41.93-170.91L2555.7,1888.8a110,110,0,0,0-54.51-16.64Zm207.55,74.12c-2.8,0-4.9.75-6.3,3-2.1,4.54,1.4,11.34,7.69,15.13L2810.76,2028c7,3.78,14,3.78,16.07-.76,2.79-4.53-.71-11.34-7.69-15.12l-100.62-63.53a23.09,23.09,0,0,0-9.78-2.26Z" transform="translate(-829 -934.39)"/></g></svg>