<svg xmlns="http://www.w3.org/2000/svg" width="4000" height="4000" viewBox="0 0 4000 4000" version="1.1"><path d="M 3110.250 2407.194 C 3041.526 2438.199, 3039 2439.434, 3039 2442.030 C 3039 2443.510, 3048 2545.568, 3059 2668.825 C 3074.165 2838.748, 3078.995 2896.504, 3078.980 2907.714 C 3078.970 2915.847, 3078.324 2927.286, 3077.545 2933.136 C 3076.766 2938.986, 3075.193 2947.761, 3074.049 2952.636 C 3072.904 2957.511, 3070.577 2965.751, 3068.878 2970.947 C 3067.178 2976.143, 3064.044 2984.356, 3061.913 2989.197 C 3059.783 2994.038, 3055.938 3001.712, 3053.369 3006.250 C 3050.801 3010.787, 3046.505 3017.759, 3043.824 3021.743 C 3041.143 3025.726, 3035.658 3032.926, 3031.636 3037.743 C 3027.615 3042.559, 3019.853 3050.775, 3014.388 3056 C 3008.924 3061.225, 3000.999 3068.095, 2996.779 3071.266 C 2992.558 3074.438, 2985.561 3079.231, 2981.230 3081.917 C 2976.899 3084.604, 2969.337 3088.815, 2964.427 3091.275 C 2959.517 3093.735, 2951.025 3097.420, 2945.555 3099.463 C 2940.085 3101.507, 2930.635 3104.468, 2924.555 3106.043 C 2918.475 3107.619, 2908.325 3109.716, 2902 3110.704 C 2891.064 3112.412, 2868.831 3112.500, 2448.500 3112.500 C 2205.400 3112.500, 2005.271 3112.156, 2003.768 3111.736 C 2002.266 3111.315, 1999.427 3109.558, 1997.459 3107.830 C 1995.492 3106.103, 1992.925 3102.847, 1991.756 3100.595 C 1990.380 3097.945, 1989.649 3094.736, 1989.684 3091.500 C 1989.725 3087.697, 1997.875 3062.028, 2023.737 2984.250 C 2042.437 2928.012, 2057.458 2882.012, 2057.118 2882.028 C 2056.778 2882.043, 2015.325 2900.617, 1965 2923.303 C 1873.500 2964.550, 1873.500 2964.550, 1860.854 3002.025 C 1853.899 3022.636, 1847.039 3044.225, 1845.609 3050 C 1844.179 3055.775, 1842.572 3063.425, 1842.039 3067 C 1841.505 3070.575, 1840.777 3078.225, 1840.420 3084 C 1840.050 3089.997, 1840.272 3099.431, 1840.938 3106 C 1841.579 3112.325, 1843.028 3121.775, 1844.157 3127 C 1845.287 3132.225, 1847.553 3140.550, 1849.193 3145.500 C 1850.834 3150.450, 1854.569 3159.450, 1857.494 3165.500 C 1860.420 3171.550, 1865.379 3180.325, 1868.516 3185 C 1871.652 3189.675, 1876.742 3196.595, 1879.827 3200.377 C 1882.911 3204.160, 1889.500 3211.044, 1894.468 3215.675 C 1899.435 3220.306, 1907.550 3226.985, 1912.500 3230.517 C 1917.450 3234.050, 1926.763 3239.668, 1933.195 3243.002 C 1939.627 3246.336, 1950.307 3250.843, 1956.928 3253.017 C 1963.548 3255.191, 1974.036 3257.988, 1980.233 3259.234 C 1991.500 3261.499, 1991.500 3261.499, 2434.500 3261.798 C 2741.896 3262.006, 2882.551 3261.770, 2894 3261.026 C 2903.075 3260.436, 2916.800 3259.040, 2924.500 3257.923 C 2932.200 3256.807, 2943.675 3254.742, 2950 3253.336 C 2956.325 3251.929, 2966.675 3249.231, 2973 3247.340 C 2979.325 3245.449, 2990.125 3241.848, 2997 3239.339 C 3003.875 3236.830, 3016.759 3231.284, 3025.632 3227.016 C 3034.504 3222.748, 3046.204 3216.655, 3051.632 3213.477 C 3057.059 3210.298, 3066.225 3204.503, 3072 3200.599 C 3077.775 3196.694, 3088.125 3189.047, 3095 3183.605 C 3101.875 3178.162, 3114.942 3166.237, 3124.039 3157.105 C 3133.135 3147.972, 3144.175 3135.993, 3148.572 3130.486 C 3152.970 3124.978, 3159.274 3116.653, 3162.583 3111.986 C 3165.892 3107.318, 3171.707 3098.550, 3175.506 3092.500 C 3179.306 3086.450, 3185.847 3074.750, 3190.043 3066.500 C 3194.239 3058.250, 3200.433 3044.455, 3203.807 3035.844 C 3207.180 3027.233, 3211.942 3013.279, 3214.387 3004.835 C 3216.833 2996.391, 3219.983 2983.587, 3221.388 2976.382 C 3222.793 2969.176, 3224.728 2957.705, 3225.688 2950.891 C 3227.031 2941.356, 3227.441 2931.471, 3227.467 2908 C 3227.500 2877.500, 3227.500 2877.500, 3205 2626.250 C 3192.625 2488.063, 3182.275 2375.012, 3182 2375.025 C 3181.725 2375.038, 3149.438 2389.514, 3110.250 2407.194 M 1508.524 3129.054 C 1413.387 3171.953, 1335.179 3207.421, 1334.730 3207.870 C 1334.280 3208.320, 1356.932 3258.134, 1385.067 3318.567 C 1413.203 3379, 1437.810 3430.932, 1439.750 3433.972 C 1441.690 3437.013, 1446.186 3442.316, 1449.742 3445.758 C 1454.307 3450.177, 1458.893 3453.341, 1465.353 3456.531 C 1470.420 3459.032, 1477.845 3461.749, 1482 3462.622 C 1487.269 3463.729, 1492.474 3464.045, 1499.500 3463.683 C 1505.592 3463.370, 1512.236 3462.319, 1516.500 3460.996 C 1520.350 3459.801, 1526.425 3457.220, 1530 3455.260 C 1533.941 3453.099, 1539.689 3448.487, 1544.598 3443.545 C 1550.565 3437.539, 1553.656 3433.434, 1556.345 3427.947 C 1558.352 3423.851, 1587.610 3337.363, 1621.363 3235.750 C 1655.115 3134.137, 1682.454 3051.013, 1682.116 3051.028 C 1681.777 3051.043, 1603.661 3086.155, 1508.524 3129.054 M 1051.600 3334.951 C 987.700 3363.804, 987.700 3363.804, 881.749 3469.652 C 808.773 3542.557, 775.214 3576.745, 773.921 3579.500 C 772.721 3582.058, 772.036 3585.765, 772.022 3589.782 C 772.010 3593.237, 772.619 3597.545, 773.375 3599.355 C 774.131 3601.165, 776.226 3604.327, 778.030 3606.382 C 779.834 3608.437, 783.153 3611.090, 785.405 3612.279 C 788.467 3613.895, 791.265 3614.442, 796.500 3614.448 C 801.271 3614.452, 804.774 3613.857, 807.500 3612.578 C 810.270 3611.279, 858.407 3563.841, 964 3458.353 C 1047.875 3374.561, 1116.275 3306.025, 1116 3306.051 C 1115.725 3306.077, 1086.745 3319.082, 1051.600 3334.951 M 1185.500 3422.644 C 1184.400 3422.912, 1181.925 3423.602, 1180 3424.178 C 1177.299 3424.987, 1159.526 3442.159, 1102.181 3499.363 C 1061.306 3540.138, 1026.738 3575.391, 1025.364 3577.703 C 1023.922 3580.129, 1022.629 3584.193, 1022.307 3587.316 C 1021.918 3591.087, 1022.281 3594.331, 1023.508 3598.023 C 1024.634 3601.414, 1026.780 3604.833, 1029.474 3607.526 C 1032.167 3610.220, 1035.586 3612.366, 1038.977 3613.492 C 1042.602 3614.696, 1045.926 3615.081, 1049.509 3614.711 C 1052.389 3614.414, 1056.490 3613.265, 1058.622 3612.157 C 1060.919 3610.965, 1092.945 3579.635, 1137.167 3535.322 C 1209.587 3462.751, 1211.881 3460.337, 1213.417 3455.068 C 1214.288 3452.081, 1215 3448.675, 1215 3447.500 C 1215 3446.325, 1214.335 3443.124, 1213.523 3440.388 C 1212.710 3437.651, 1210.459 3433.559, 1208.520 3431.294 C 1206.581 3429.029, 1203.083 3426.267, 1200.747 3425.156 C 1198.411 3424.046, 1194.475 3422.917, 1192 3422.647 C 1189.525 3422.378, 1186.600 3422.377, 1185.500 3422.644" stroke="none" fill="#2abfdc" fill-rule="evenodd"/><path d="M 2085.500 384.613 C 2082.200 384.824, 2072.390 385.700, 2063.700 386.560 C 2055.010 387.419, 2042.635 388.996, 2036.200 390.064 C 2029.765 391.131, 2018.200 393.396, 2010.500 395.097 C 2002.800 396.798, 1989.613 400.180, 1981.195 402.613 C 1972.778 405.046, 1959.953 409.230, 1952.695 411.911 C 1945.438 414.592, 1934.595 418.889, 1928.600 421.461 C 1922.605 424.032, 1911.996 428.994, 1905.024 432.488 C 1898.053 435.981, 1887.882 441.401, 1882.424 444.532 C 1876.966 447.663, 1866.650 454.063, 1859.500 458.754 C 1852.350 463.444, 1841.298 471.246, 1834.939 476.090 C 1828.581 480.935, 1818.456 489.136, 1812.439 494.316 C 1806.423 499.495, 1794.750 510.656, 1786.499 519.117 C 1778.249 527.577, 1766.986 540.125, 1761.470 547 C 1755.955 553.875, 1748.230 564, 1744.305 569.501 C 1740.379 575.001, 1733.484 585.576, 1728.981 593.001 C 1724.479 600.425, 1717.495 613.075, 1713.461 621.112 C 1709.426 629.148, 1704.131 640.398, 1701.694 646.112 C 1699.256 651.825, 1695.149 662.575, 1692.567 670 C 1689.985 677.425, 1686.335 689.350, 1684.457 696.500 C 1682.579 703.650, 1680.136 713.921, 1679.028 719.325 C 1677.921 724.729, 1676.526 732.154, 1675.929 735.825 C 1675.331 739.496, 1674.133 747.900, 1673.265 754.500 C 1671.930 764.650, 1671.626 783.952, 1671.292 879.727 C 1670.898 992.955, 1670.898 992.955, 1482.199 993.282 C 1309.431 993.582, 1292.804 993.753, 1285.257 995.306 C 1280.723 996.240, 1272.623 998.399, 1267.257 1000.105 C 1261.891 1001.811, 1253.401 1005.163, 1248.392 1007.553 C 1243.382 1009.942, 1235.057 1014.709, 1229.892 1018.144 C 1224.042 1022.035, 1215.921 1028.937, 1208.360 1036.446 C 1200.160 1044.587, 1194.202 1051.584, 1190.006 1058 C 1186.589 1063.225, 1182.321 1070.425, 1180.521 1074 C 1178.722 1077.575, 1175.646 1084.794, 1173.686 1090.043 C 1171.726 1095.292, 1169.211 1104.067, 1168.098 1109.543 C 1166.985 1115.019, 1164.486 1137.050, 1162.544 1158.500 C 1160.602 1179.950, 1136.251 1452.425, 1108.431 1764 C 1058.901 2318.713, 1057.859 2330.875, 1058.350 2348.500 C 1058.711 2361.451, 1059.435 2369.165, 1060.932 2376 C 1062.075 2381.225, 1064.391 2389.775, 1066.078 2395 C 1067.765 2400.225, 1072.033 2410.350, 1075.562 2417.500 C 1079.090 2424.650, 1085.018 2434.775, 1088.733 2440 C 1092.449 2445.225, 1100.666 2454.729, 1106.994 2461.121 C 1113.323 2467.512, 1122.232 2475.485, 1126.794 2478.839 C 1131.355 2482.192, 1139.455 2487.404, 1144.794 2490.420 C 1150.132 2493.437, 1159.156 2497.768, 1164.847 2500.045 C 1170.537 2502.323, 1180.221 2505.456, 1186.365 2507.008 C 1192.510 2508.559, 1201.049 2510.318, 1205.341 2510.915 C 1209.633 2511.512, 1219.750 2511.997, 1227.822 2511.994 C 1235.895 2511.991, 1246.874 2511.329, 1252.220 2510.523 C 1257.566 2509.717, 1265.441 2508.163, 1269.720 2507.070 C 1273.999 2505.977, 1373.575 2473.140, 1491 2434.099 C 1608.425 2395.058, 1708.775 2362.011, 1714 2360.662 C 1719.225 2359.312, 1728 2357.446, 1733.500 2356.514 C 1739 2355.581, 1749.484 2354.522, 1756.798 2354.159 C 1764.112 2353.797, 1775.812 2353.802, 1782.798 2354.172 C 1789.784 2354.542, 1799.775 2355.582, 1805 2356.482 C 1810.225 2357.383, 1818.839 2359.214, 1824.143 2360.550 C 1829.446 2361.887, 1837.771 2364.378, 1842.643 2366.085 C 1847.514 2367.793, 1857.121 2371.868, 1863.991 2375.141 C 1870.860 2378.415, 1879.860 2383.180, 1883.991 2385.730 C 1888.121 2388.281, 1895.621 2393.403, 1900.657 2397.113 C 1905.694 2400.823, 1913.769 2407.377, 1918.602 2411.677 C 1923.435 2415.977, 1931.630 2424.446, 1936.813 2430.497 C 1941.996 2436.549, 1949.711 2446.741, 1953.959 2453.147 C 1958.206 2459.552, 1964.422 2470.352, 1967.772 2477.147 C 1971.122 2483.941, 1975.858 2495.350, 1978.296 2502.500 C 1980.735 2509.650, 1983.666 2519.550, 1984.811 2524.500 C 1985.955 2529.450, 1987.661 2538.450, 1988.602 2544.500 C 1989.797 2552.191, 1990.307 2561.516, 1990.296 2575.500 C 1990.285 2589.362, 1989.754 2598.876, 1988.567 2606.500 C 1987.625 2612.550, 1985.966 2621.319, 1984.881 2625.986 C 1983.796 2630.654, 1958.353 2708.504, 1928.342 2798.986 C 1898.330 2889.469, 1873.593 2963.807, 1873.370 2964.183 C 1873.147 2964.559, 1881.185 2961.153, 1891.232 2956.615 C 1901.280 2952.077, 1942.914 2933.320, 1983.754 2914.932 C 2058.008 2881.500, 2058.008 2881.500, 2090.990 2782.455 C 2109.130 2727.981, 2125.776 2676.338, 2127.982 2667.695 C 2130.187 2659.051, 2133.082 2645.572, 2134.415 2637.740 C 2135.748 2629.908, 2137.409 2618.325, 2138.107 2612 C 2138.805 2605.675, 2139.379 2589.475, 2139.383 2576 C 2139.387 2562.525, 2138.819 2546.100, 2138.122 2539.500 C 2137.424 2532.900, 2135.757 2520.975, 2134.418 2513 C 2133.078 2505.025, 2130.391 2492.200, 2128.447 2484.500 C 2126.502 2476.800, 2123.180 2465.325, 2121.065 2459 C 2118.950 2452.675, 2115.548 2443.225, 2113.506 2438 C 2111.463 2432.775, 2106.289 2421.300, 2102.009 2412.500 C 2097.728 2403.700, 2090.603 2390.534, 2086.175 2383.242 C 2081.747 2375.949, 2075.306 2366.049, 2071.863 2361.242 C 2068.419 2356.434, 2062.736 2348.900, 2059.233 2344.500 C 2055.730 2340.100, 2048.141 2331.242, 2042.367 2324.816 C 2036.593 2318.389, 2026.538 2308.337, 2020.022 2302.478 C 2013.506 2296.619, 2003.973 2288.461, 1998.837 2284.349 C 1993.702 2280.237, 1983.200 2272.661, 1975.500 2267.513 C 1967.800 2262.365, 1956.136 2255.170, 1949.580 2251.525 C 1943.024 2247.879, 1932.449 2242.485, 1926.080 2239.538 C 1919.711 2236.592, 1910 2232.395, 1904.500 2230.212 C 1899 2228.029, 1888.875 2224.421, 1882 2222.195 C 1875.125 2219.970, 1865 2217.012, 1859.500 2215.623 C 1854 2214.234, 1843.425 2211.978, 1836 2210.610 C 1828.575 2209.242, 1815.750 2207.361, 1807.500 2206.431 C 1797.710 2205.328, 1784.512 2204.740, 1769.500 2204.739 C 1756.850 2204.739, 1741.550 2205.265, 1735.500 2205.909 C 1729.450 2206.552, 1719.775 2207.760, 1714 2208.592 C 1708.225 2209.425, 1698.325 2211.243, 1692 2212.634 C 1685.675 2214.024, 1676.450 2216.273, 1671.500 2217.630 C 1666.550 2218.987, 1565.676 2252.251, 1447.336 2291.549 C 1286.841 2344.846, 1230.997 2363, 1227.546 2363 C 1224.941 2363, 1221.259 2362.152, 1219.115 2361.059 C 1217.023 2359.991, 1213.861 2357.466, 1212.088 2355.448 C 1210.316 2353.429, 1208.446 2350.674, 1207.933 2349.324 C 1207.420 2347.974, 1206.993 2344.987, 1206.985 2342.685 C 1206.976 2340.383, 1230.849 2070.300, 1260.036 1742.500 C 1289.223 1414.700, 1313.313 1145.487, 1313.570 1144.250 C 1314.038 1142, 1314.038 1142, 1492.487 1142 C 1670.936 1142, 1670.936 1142, 1671.220 1227.750 C 1671.503 1313.500, 1671.503 1313.500, 1673.850 1320.500 C 1675.141 1324.350, 1677.832 1330.650, 1679.830 1334.500 C 1682.345 1339.345, 1686.086 1344.117, 1691.982 1350 C 1696.667 1354.675, 1703.049 1359.994, 1706.165 1361.821 C 1709.281 1363.647, 1714.991 1366.241, 1718.854 1367.584 C 1722.716 1368.927, 1729.497 1370.513, 1733.923 1371.109 C 1739.835 1371.905, 1744.294 1371.885, 1750.735 1371.034 C 1755.556 1370.397, 1762.576 1368.811, 1766.335 1367.509 C 1770.094 1366.207, 1775.713 1363.647, 1778.822 1361.821 C 1781.931 1359.994, 1788.319 1354.675, 1793.017 1350 C 1799.795 1343.255, 1802.430 1339.745, 1805.778 1333 C 1808.098 1328.325, 1810.775 1321.800, 1811.727 1318.500 C 1813.297 1313.060, 1813.487 1304.547, 1813.761 1227.250 C 1814.064 1142, 1814.064 1142, 2111.532 1142 C 2409 1142, 2409 1142, 2409.008 1223.250 C 2409.012 1274.888, 2409.396 1306.845, 2410.059 1310.935 C 2410.633 1314.474, 2412.010 1320.099, 2413.119 1323.435 C 2414.228 1326.771, 2416.918 1332.526, 2419.098 1336.226 C 2421.277 1339.925, 2425.565 1345.656, 2428.625 1348.962 C 2431.686 1352.268, 2437.287 1357.032, 2441.072 1359.548 C 2444.857 1362.064, 2451.512 1365.422, 2455.862 1367.009 C 2460.211 1368.596, 2467.653 1370.412, 2472.400 1371.043 C 2478.681 1371.879, 2483.190 1371.901, 2488.962 1371.125 C 2493.324 1370.537, 2499.730 1369.110, 2503.197 1367.953 C 2506.664 1366.795, 2512.425 1364.235, 2516 1362.265 C 2519.979 1360.071, 2525.819 1355.349, 2531.058 1350.091 C 2537.473 1343.651, 2540.661 1339.466, 2543.793 1333.376 C 2546.090 1328.908, 2548.874 1321.483, 2549.978 1316.876 C 2551.905 1308.837, 2551.986 1305.150, 2551.993 1225.250 C 2552 1142, 2552 1142, 2737.360 1142 C 2922.720 1142, 2922.720 1142, 2923.240 1147.250 C 2923.525 1150.138, 2949.574 1441.963, 2981.125 1795.750 C 3012.676 2149.537, 3038.778 2439, 3039.128 2439 C 3039.479 2439, 3071.656 2424.627, 3110.633 2407.061 C 3172.886 2379.004, 3181.535 2374.841, 3181.790 2372.811 C 3181.950 2371.540, 3157.094 2090.150, 3126.555 1747.500 C 3096.015 1404.850, 3070.297 1120.225, 3069.403 1115 C 3068.509 1109.775, 3066.435 1101.225, 3064.796 1096 C 3063.156 1090.775, 3059.428 1081.550, 3056.511 1075.500 C 3053.594 1069.450, 3048.348 1060.451, 3044.854 1055.502 C 3041.359 1050.553, 3033.999 1042.003, 3028.498 1036.502 C 3022.997 1031.001, 3014.447 1023.643, 3009.498 1020.151 C 3004.549 1016.660, 2995.550 1011.391, 2989.500 1008.443 C 2983.450 1005.495, 2975.125 1001.969, 2971 1000.607 C 2966.875 999.245, 2959 997.105, 2953.500 995.850 C 2943.500 993.568, 2943.500 993.568, 2747.801 993.260 C 2552.101 992.952, 2552.101 992.952, 2551.731 878.726 C 2551.369 767.338, 2551.305 764.115, 2549.154 749 C 2547.940 740.475, 2545.817 727.875, 2544.434 721 C 2543.052 714.125, 2540.597 703.550, 2538.979 697.500 C 2537.360 691.450, 2534.067 680.650, 2531.659 673.500 C 2529.251 666.350, 2525.239 655.550, 2522.744 649.500 C 2520.248 643.450, 2516.209 634.225, 2513.769 629 C 2511.329 623.775, 2506.074 613.650, 2502.091 606.500 C 2498.109 599.350, 2490.194 586.525, 2484.502 578 C 2478.811 569.475, 2469.287 556.425, 2463.339 549 C 2457.391 541.575, 2445.318 528.129, 2436.512 519.119 C 2427.705 510.110, 2415.550 498.469, 2409.500 493.252 C 2403.450 488.035, 2393.550 480.057, 2387.500 475.524 C 2381.450 470.991, 2372.307 464.473, 2367.183 461.038 C 2362.058 457.604, 2353.058 451.895, 2347.183 448.353 C 2341.307 444.810, 2329.075 438.153, 2320 433.559 C 2310.925 428.966, 2297.425 422.645, 2290 419.514 C 2282.575 416.382, 2268.625 411.190, 2259 407.976 C 2249.375 404.763, 2233.175 400.089, 2223 397.591 C 2212.825 395.092, 2197.750 391.924, 2189.500 390.551 C 2181.250 389.178, 2167.975 387.351, 2160 386.492 C 2151.966 385.626, 2133.461 384.773, 2118.500 384.579 C 2103.650 384.387, 2088.800 384.403, 2085.500 384.613 M 2082.500 528.149 C 2077 528.630, 2066.875 529.930, 2060 531.038 C 2053.125 532.146, 2041.131 534.619, 2033.346 536.532 C 2025.561 538.445, 2013.940 541.821, 2007.523 544.034 C 2001.105 546.247, 1990.333 550.447, 1983.585 553.367 C 1976.837 556.286, 1966.407 561.305, 1960.408 564.519 C 1954.409 567.733, 1943.344 574.501, 1935.821 579.559 C 1928.298 584.617, 1918.623 591.607, 1914.321 595.092 C 1910.019 598.578, 1900.711 607.070, 1893.636 613.965 C 1886.561 620.859, 1876.956 631.225, 1872.293 637 C 1867.629 642.775, 1860.519 652.465, 1856.492 658.534 C 1852.465 664.603, 1846.671 674.289, 1843.617 680.060 C 1840.563 685.831, 1836.094 695.265, 1833.687 701.026 C 1831.280 706.787, 1827.900 715.775, 1826.176 721 C 1824.453 726.225, 1821.929 735.225, 1820.567 741 C 1819.206 746.775, 1817.305 756.225, 1816.344 762 C 1814.771 771.453, 1814.563 783.491, 1814.257 882.750 C 1813.918 993, 1813.918 993, 2111.459 993 C 2409 993, 2409 993, 2409 887.744 C 2409 801.606, 2408.734 780.218, 2407.534 769.994 C 2406.727 763.122, 2405.168 753.139, 2404.069 747.809 C 2402.969 742.479, 2400.871 733.929, 2399.406 728.809 C 2397.941 723.689, 2394.795 714.444, 2392.415 708.265 C 2390.035 702.086, 2385.166 691.286, 2381.594 684.265 C 2378.023 677.244, 2371.557 666.100, 2367.225 659.500 C 2362.893 652.900, 2356.481 643.907, 2352.976 639.515 C 2349.470 635.123, 2343.232 627.923, 2339.113 623.515 C 2334.993 619.107, 2327.320 611.521, 2322.061 606.659 C 2316.803 601.796, 2307.493 594.039, 2301.373 589.421 C 2295.252 584.803, 2285.150 577.862, 2278.923 573.996 C 2272.696 570.130, 2262.854 564.548, 2257.051 561.592 C 2251.248 558.635, 2242.225 554.410, 2237 552.201 C 2231.775 549.993, 2222.775 546.542, 2217 544.533 C 2211.225 542.523, 2200.646 539.336, 2193.492 537.450 C 2186.337 535.565, 2173.962 532.926, 2165.992 531.586 C 2158.021 530.246, 2145.738 528.667, 2138.696 528.075 C 2131.653 527.484, 2118.378 527.062, 2109.196 527.137 C 2100.013 527.213, 2088 527.668, 2082.500 528.149 M 1757.067 2508.089 C 1754.628 2508.567, 1565.628 2571.110, 1337.067 2647.073 C 1108.505 2723.035, 919.025 2786.500, 916 2788.105 C 912.975 2789.711, 907.939 2793.059, 904.809 2795.546 C 901.679 2798.033, 897 2802.865, 894.410 2806.284 C 891.821 2809.703, 888.454 2815.226, 886.928 2818.558 C 885.403 2821.890, 883.364 2827.515, 882.398 2831.058 C 881.251 2835.267, 880.637 2841.140, 880.628 2848 C 880.619 2854.723, 881.226 2860.838, 882.317 2865 C 883.254 2868.575, 885.565 2874.650, 887.454 2878.500 C 889.342 2882.350, 893.067 2888.200, 895.732 2891.500 C 898.396 2894.800, 903.714 2899.750, 907.550 2902.500 C 912.777 2906.248, 956.708 2927.132, 1083.012 2985.911 C 1175.680 3029.036, 1253.837 3065.802, 1256.693 3067.612 C 1259.549 3069.422, 1263.779 3072.612, 1266.092 3074.701 C 1268.405 3076.791, 1272.368 3081.460, 1274.899 3085.078 C 1277.750 3089.154, 1289.767 3113.772, 1306.500 3149.817 C 1321.350 3181.806, 1333.773 3207.871, 1334.107 3207.740 C 1334.440 3207.608, 1413.057 3172.175, 1508.811 3129 C 1682.909 3050.500, 1682.909 3050.500, 1758.413 2823.479 C 1799.940 2698.617, 1834.604 2593.542, 1835.444 2589.979 C 1836.283 2586.415, 1836.977 2579.432, 1836.985 2574.460 C 1836.993 2569.488, 1836.311 2562.738, 1835.468 2559.460 C 1834.626 2556.182, 1832.441 2550.350, 1830.612 2546.500 C 1828.784 2542.650, 1825.172 2536.703, 1822.585 2533.284 C 1819.998 2529.865, 1815.321 2525.008, 1812.191 2522.490 C 1809.061 2519.972, 1802.900 2516.161, 1798.500 2514.022 C 1794.100 2511.883, 1787.031 2509.427, 1782.792 2508.566 C 1778.553 2507.705, 1772.028 2507.049, 1768.292 2507.110 C 1764.556 2507.170, 1759.505 2507.610, 1757.067 2508.089 M 962.994 3155.934 C 961.615 3156.354, 959.140 3157.409, 957.494 3158.279 C 955.847 3159.149, 920.913 3193.530, 879.863 3234.681 C 818.802 3295.891, 804.987 3310.228, 803.913 3313.500 C 803.190 3315.700, 802.617 3320.021, 802.639 3323.102 C 802.665 3326.785, 803.442 3330.282, 804.907 3333.308 C 806.133 3335.840, 808.760 3339.338, 810.745 3341.081 C 812.730 3342.824, 815.962 3344.933, 817.927 3345.767 C 819.892 3346.601, 823.975 3347.310, 827 3347.342 C 830.025 3347.375, 834.300 3346.810, 836.500 3346.087 C 839.772 3345.013, 854.028 3331.278, 914.819 3270.637 C 955.694 3229.862, 990.262 3194.609, 991.636 3192.297 C 993.078 3189.871, 994.371 3185.807, 994.693 3182.684 C 995.082 3178.913, 994.719 3175.669, 993.492 3171.977 C 992.369 3168.595, 990.221 3165.168, 987.549 3162.496 C 985.067 3160.014, 981.388 3157.639, 978.504 3156.656 C 975.831 3155.745, 971.811 3155.039, 969.572 3155.086 C 967.332 3155.133, 964.372 3155.515, 962.994 3155.934 M 1109.500 3243.920 C 1106.790 3245.192, 1086.640 3264.731, 1047 3304.528 C 1014.825 3336.831, 989.175 3363.016, 990 3362.717 C 990.825 3362.419, 1019.625 3349.516, 1054 3334.044 C 1116.500 3305.913, 1116.500 3305.913, 1129.083 3293.172 C 1139.228 3282.899, 1141.988 3279.483, 1143.333 3275.537 C 1144.250 3272.846, 1144.996 3268.586, 1144.990 3266.072 C 1144.985 3263.400, 1144.011 3259.419, 1142.649 3256.493 C 1141.366 3253.739, 1138.591 3249.970, 1136.481 3248.118 C 1134.372 3246.265, 1131.165 3244.131, 1129.355 3243.375 C 1127.545 3242.619, 1123.237 3242.010, 1119.782 3242.022 C 1115.766 3242.036, 1112.057 3242.721, 1109.500 3243.920" stroke="none" fill="#b447a5" fill-rule="evenodd"/></svg>