<svg xmlns="http://www.w3.org/2000/svg" xml:space="preserve" style="enable-background:new 0 0 25 25" viewBox="0 0 25 25"><path d="M0 0h25v25H0z" style="fill:#fff"/><radialGradient id="a" cx="960.204" cy="-7103.169" r="5.787" gradientTransform="matrix(1.9368 0 0 .262 -1847.222 1879.829)" gradientUnits="userSpaceOnUse"><stop offset="0" style="stop-color:#000"/><stop offset=".007" style="stop-color:#090909"/><stop offset=".048" style="stop-color:#373737"/><stop offset=".093" style="stop-color:#626262"/><stop offset=".142" style="stop-color:#888"/><stop offset=".195" style="stop-color:#a8a8a8"/><stop offset=".254" style="stop-color:#c4c4c4"/><stop offset=".32" style="stop-color:#dadada"/><stop offset=".397" style="stop-color:#ebebeb"/><stop offset=".493" style="stop-color:#f6f6f6"/><stop offset=".627" style="stop-color:#fdfdfd"/><stop offset="1" style="stop-color:#fff"/></radialGradient><path d="M23.708 18.799c0 .838-5.018 1.516-11.208 1.516s-11.208-.678-11.208-1.516c0-.836 5.018-1.517 11.208-1.517s11.208.681 11.208 1.517z" style="opacity:.25;fill:url(#a)"/><linearGradient id="b" x1="-22.547" x2="-18.75" y1="-67.382" y2="-56.32" gradientTransform="rotate(45.001 -90.86 16.503)" gradientUnits="userSpaceOnUse"><stop offset="0" style="stop-color:#ffd973"/><stop offset=".307" style="stop-color:#ff8273"/><stop offset=".778" style="stop-color:#870073"/><stop offset=".97" style="stop-color:#8a0073"/><stop offset="1" style="stop-color:#8b0073"/></linearGradient><path d="M13.089 8.696a4.416 4.416 0 0 0-1.202 4.027 4.42 4.42 0 0 0 5.229-5.229 4.42 4.42 0 0 0-4.027 1.202z" style="fill:url(#b)"/><linearGradient id="c" x1="-24.57" x2="-20.077" y1="-62.611" y2="-62.5" gradientTransform="rotate(45.001 -90.86 16.503)" gradientUnits="userSpaceOnUse"><stop offset="0" style="stop-color:#ffd973"/><stop offset=".307" style="stop-color:#ff8273"/><stop offset=".778" style="stop-color:#870073"/><stop offset=".97" style="stop-color:#8a0073"/><stop offset="1" style="stop-color:#8b0073"/></linearGradient><path d="M17.068 7.487a4.415 4.415 0 0 0-5.187 5.19l5.187-5.19z" style="opacity:.5;fill:url(#c)"/><g style="opacity:.8"><linearGradient id="d" x1="9.108" x2="12.906" y1="-23.862" y2="-12.8" gradientTransform="rotate(14.999 -95.116 2.927)" gradientUnits="userSpaceOnUse"><stop offset="0" style="stop-color:#a0ffff"/><stop offset=".307" style="stop-color:#23c0ff"/><stop offset=".778" style="stop-color:#2300ff"/><stop offset=".97" style="stop-color:#2300ff"/><stop offset="1" style="stop-color:#2300ff"/></linearGradient><path d="M10.914 8.635a4.42 4.42 0 0 0 .973 4.089 4.419 4.419 0 0 0 1.914-7.144 4.419 4.419 0 0 0-2.887 3.055z" style="fill:url(#d)"/><linearGradient id="e" x1="7.087" x2="11.578" y1="-19.091" y2="-18.981" gradientTransform="rotate(14.999 -95.116 2.927)" gradientUnits="userSpaceOnUse"><stop offset="0" style="stop-color:#a0ffff"/><stop offset=".307" style="stop-color:#23c0ff"/><stop offset=".778" style="stop-color:#2300ff"/><stop offset=".97" style="stop-color:#2300ff"/><stop offset="1" style="stop-color:#2300ff"/></linearGradient><path d="M13.756 5.598a4.413 4.413 0 0 0-1.899 7.088l1.899-7.088z" style="opacity:.5;fill:url(#e)"/></g><linearGradient id="f" x1="15.023" x2="18.821" y1="29.202" y2="40.264" gradientTransform="rotate(-14.999 -80.803 43.492)" gradientUnits="userSpaceOnUse"><stop offset="0" style="stop-color:#23ffff"/><stop offset=".307" style="stop-color:#23c0ff"/><stop offset=".778" style="stop-color:#2300b7"/><stop offset=".921" style="stop-color:#2300ba"/><stop offset="1" style="stop-color:#2300c1"/></linearGradient><path d="M9 9.669a4.417 4.417 0 0 0 2.887 3.055A4.423 4.423 0 0 0 9.973 5.58 4.421 4.421 0 0 0 9 9.669z" style="fill:url(#f)"/><linearGradient id="g" x1="13.002" x2="17.492" y1="33.973" y2="34.084" gradientTransform="rotate(-14.999 -80.803 43.492)" gradientUnits="userSpaceOnUse"><stop offset="0" style="stop-color:#23ffff"/><stop offset=".307" style="stop-color:#23c0ff"/><stop offset=".778" style="stop-color:#2300b7"/><stop offset=".921" style="stop-color:#2300ba"/><stop offset="1" style="stop-color:#2300c1"/></linearGradient><path d="M9.943 5.617a4.416 4.416 0 0 0 1.899 7.089L9.943 5.617z" style="opacity:.5;fill:url(#g)"/><g style="opacity:.8"><linearGradient id="h" x1="-6.91" x2="-3.112" y1="78.112" y2="89.176" gradientTransform="rotate(-45.001 -85.941 29.022)" gradientUnits="userSpaceOnUse"><stop offset="0" style="stop-color:#ffaeff"/><stop offset=".307" style="stop-color:#ff29ff"/><stop offset=".778" style="stop-color:#f0f"/><stop offset=".97" style="stop-color:#f0f"/><stop offset="1" style="stop-color:#f0f"/></linearGradient><path d="M7.859 11.523a4.423 4.423 0 0 0 4.027 1.201 4.422 4.422 0 0 0-5.23-5.23 4.428 4.428 0 0 0 1.203 4.029z" style="fill:url(#h)"/><linearGradient id="i" x1="-8.932" x2="-4.441" y1="82.885" y2="82.996" gradientTransform="rotate(-45.001 -85.941 29.022)" gradientUnits="userSpaceOnUse"><stop offset="0" style="stop-color:#ffaeff"/><stop offset=".307" style="stop-color:#ff29ff"/><stop offset=".778" style="stop-color:#f0f"/><stop offset=".97" style="stop-color:#f0f"/><stop offset="1" style="stop-color:#f0f"/></linearGradient><path d="M6.65 7.542a4.418 4.418 0 0 0 1.209 3.981 4.418 4.418 0 0 0 3.98 1.208L6.65 7.542z" style="opacity:.5;fill:url(#i)"/></g><linearGradient id="j" x1="-.489" x2="3.308" y1="-118.185" y2="-107.123" gradientTransform="rotate(-64.887 102.766 -56.875)" gradientUnits="userSpaceOnUse"><stop offset="0" style="stop-color:#ffd973"/><stop offset=".307" style="stop-color:#ff8273"/><stop offset=".778" style="stop-color:#870073"/><stop offset=".97" style="stop-color:#8a0073"/><stop offset="1" style="stop-color:#8b0073"/></linearGradient><path d="M7.689 12.964a4.42 4.42 0 0 0 4.197-.24A4.42 4.42 0 0 0 5.19 9.585a4.417 4.417 0 0 0 2.499 3.379z" style="fill:url(#j)"/><linearGradient id="k" x1="-2.513" x2="1.982" y1="-113.413" y2="-113.303" gradientTransform="rotate(-64.887 102.766 -56.875)" gradientUnits="userSpaceOnUse"><stop offset="0" style="stop-color:#ffd973"/><stop offset=".307" style="stop-color:#ff8273"/><stop offset=".778" style="stop-color:#870073"/><stop offset=".97" style="stop-color:#8a0073"/><stop offset="1" style="stop-color:#8b0073"/></linearGradient><path d="M5.2 9.634a4.42 4.42 0 0 0 2.489 3.33 4.417 4.417 0 0 0 4.155-.219L5.2 9.634z" style="opacity:.5;fill:url(#k)"/><g style="opacity:.8"><linearGradient id="l" x1="53.333" x2="57.13" y1="-57.209" y2="-46.146" gradientTransform="scale(-1) rotate(85.113 1.993 -67.112)" gradientUnits="userSpaceOnUse"><stop offset="0" style="stop-color:#a0ffff"/><stop offset=".307" style="stop-color:#23c0ff"/><stop offset=".778" style="stop-color:#2300ff"/><stop offset=".97" style="stop-color:#2300ff"/><stop offset="1" style="stop-color:#2300ff"/></linearGradient><path d="M8.372 15.029a4.422 4.422 0 0 0 3.515-2.306 4.422 4.422 0 0 0-7.369.631 4.419 4.419 0 0 0 3.854 1.675z" style="fill:url(#l)"/><linearGradient id="m" x1="51.312" x2="55.802" y1="-52.437" y2="-52.327" gradientTransform="scale(-1) rotate(85.113 1.993 -67.112)" gradientUnits="userSpaceOnUse"><stop offset="0" style="stop-color:#a0ffff"/><stop offset=".307" style="stop-color:#23c0ff"/><stop offset=".778" style="stop-color:#2300ff"/><stop offset=".97" style="stop-color:#2300ff"/><stop offset="1" style="stop-color:#2300ff"/></linearGradient><path d="M4.551 13.391a4.412 4.412 0 0 0 7.31-.626l-7.31.626z" style="opacity:.5;fill:url(#m)"/></g><linearGradient id="n" x1="69.235" x2="73.032" y1="22.807" y2="33.869" gradientTransform="scale(-1) rotate(55.112 71.755 -70.01)" gradientUnits="userSpaceOnUse"><stop offset="0" style="stop-color:#23ffff"/><stop offset=".307" style="stop-color:#23c0ff"/><stop offset=".778" style="stop-color:#2300b7"/><stop offset=".921" style="stop-color:#2300ba"/><stop offset="1" style="stop-color:#2300c1"/></linearGradient><path d="M9.996 16.479a4.418 4.418 0 0 0 1.891-3.755 4.422 4.422 0 0 0-6.067 4.231 4.43 4.43 0 0 0 4.176-.476z" style="fill:url(#n)"/><linearGradient id="o" x1="67.214" x2="71.704" y1="27.578" y2="27.688" gradientTransform="scale(-1) rotate(55.112 71.755 -70.01)" gradientUnits="userSpaceOnUse"><stop offset="0" style="stop-color:#23ffff"/><stop offset=".307" style="stop-color:#23c0ff"/><stop offset=".778" style="stop-color:#2300b7"/><stop offset=".921" style="stop-color:#2300ba"/><stop offset="1" style="stop-color:#2300c1"/></linearGradient><path d="M5.865 16.97a4.42 4.42 0 0 0 4.131-.491 4.418 4.418 0 0 0 1.89-3.706L5.865 16.97z" style="opacity:.5;fill:url(#o)"/><ellipse cx="11.887" cy="13.23" rx="3.937" ry="3.938" style="fill:#fff" transform="rotate(-9.213 11.887 13.228)"/><path d="M11.227 13.354a.23.23 0 0 1 .064.068.22.22 0 0 1-.003.213.191.191 0 0 1-.081.073.428.428 0 0 1-.131.041.98.98 0 0 1-.174.014h-.462v-.05l.049-.006a.15.15 0 0 0 .041-.009.06.06 0 0 0 .032-.024.083.083 0 0 0 .009-.041v-.628a.084.084 0 0 0-.008-.037c-.004-.008-.015-.018-.033-.025a.14.14 0 0 0-.045-.014.223.223 0 0 0-.045-.009v-.048h.483c.123 0 .211.016.266.049.053.034.08.082.08.148a.169.169 0 0 1-.018.08.157.157 0 0 1-.053.059.301.301 0 0 1-.073.041.747.747 0 0 1-.091.029v.011c.031.002.066.01.102.022a.307.307 0 0 1 .091.043zm-.203-.269c0-.049-.013-.089-.041-.115-.028-.027-.069-.043-.126-.043l-.03.002-.032.001v.332h.032c.067 0 .117-.016.149-.049.033-.031.048-.073.048-.128zm.045.427a.188.188 0 0 0-.056-.143.24.24 0 0 0-.159-.049c-.008 0-.018 0-.03.002l-.029.001v.326c.003.014.015.029.034.039a.15.15 0 0 0 .072.016c.049 0 .09-.016.121-.051.031-.032.047-.079.047-.141zM12.226 13.749l-.299.017-.011-.008v-.082h-.003a.696.696 0 0 1-.091.072.175.175 0 0 1-.06.024.3.3 0 0 1-.083.008.181.181 0 0 1-.144-.058c-.035-.036-.052-.091-.052-.162v-.281a.073.073 0 0 0-.009-.039c-.006-.012-.015-.019-.025-.027a.068.068 0 0 0-.032-.015.249.249 0 0 0-.036-.003v-.047l.303-.017.008.01v.418c0 .043.008.074.024.095a.08.08 0 0 0 .067.03.13.13 0 0 0 .08-.023.156.156 0 0 0 .053-.048v-.34c0-.014-.004-.025-.008-.036a.064.064 0 0 0-.024-.029.058.058 0 0 0-.032-.01l-.044-.002v-.047l.307-.017.009.01v.484a.07.07 0 0 0 .009.037.07.07 0 0 0 .025.026.067.067 0 0 0 .03.011c.013.003.025.003.038.004v.045zM12.567 13.784a.4.4 0 0 1-.118-.02.434.434 0 0 1-.091-.037l-.02.043h-.047l-.009-.235h.046c.006.019.017.04.03.065a.341.341 0 0 0 .119.111.18.18 0 0 0 .08.018.142.142 0 0 0 .085-.021.082.082 0 0 0 .029-.068.078.078 0 0 0-.013-.043.094.094 0 0 0-.035-.027.194.194 0 0 0-.054-.02l-.071-.022-.074-.025a.292.292 0 0 1-.063-.041.26.26 0 0 1-.046-.059.174.174 0 0 1-.017-.082c0-.059.025-.107.075-.144a.312.312 0 0 1 .194-.054c.038 0 .073.002.106.011a.83.83 0 0 1 .08.023l.015-.034h.047l.01.213h-.044a.267.267 0 0 0-.076-.113.165.165 0 0 0-.113-.047.125.125 0 0 0-.076.02c-.02.012-.028.03-.028.055 0 .032.013.057.041.071a.638.638 0 0 0 .112.039c.075.02.13.045.165.079a.167.167 0 0 1 .052.126c0 .07-.027.122-.081.158a.34.34 0 0 1-.21.06zM13.333 13.763h-.397v-.047l.031-.003a.097.097 0 0 0 .027-.007.041.041 0 0 0 .028-.023.064.064 0 0 0 .009-.036v-.365a.069.069 0 0 0-.011-.039.073.073 0 0 0-.025-.027l-.033-.015a.176.176 0 0 0-.042-.006v-.047l.308-.017.009.01v.499c0 .014.003.026.01.038.007.01.015.017.026.021.009.004.018.008.027.01.01.004.021.005.032.007v.047zm-.092-.858a.108.108 0 0 1-.037.081.13.13 0 0 1-.174 0 .108.108 0 0 1 0-.163.128.128 0 0 1 .175 0 .112.112 0 0 1 .036.082zM14.219 13.763h-.377v-.047c.008-.002.018-.002.029-.003a.063.063 0 0 0 .025-.007.034.034 0 0 0 .02-.019.145.145 0 0 0 .005-.04v-.294a.167.167 0 0 0-.024-.097.085.085 0 0 0-.069-.033.139.139 0 0 0-.046.008.586.586 0 0 0-.043.023c-.012.009-.022.019-.029.025l-.018.023v.338c0 .015.002.025.005.037.005.01.012.017.021.021a.088.088 0 0 0 .026.01c.01.004.02.005.029.007v.047h-.383v-.047a.19.19 0 0 1 .032-.003c.012-.001.021-.005.027-.007a.051.051 0 0 0 .028-.02.094.094 0 0 0 .007-.039v-.365a.084.084 0 0 0-.01-.039.085.085 0 0 0-.026-.03.06.06 0 0 0-.028-.013.152.152 0 0 0-.038-.005v-.047l.299-.017.011.01v.091h.002l.042-.036c.017-.016.033-.026.047-.038a.255.255 0 0 1 .142-.034c.068 0 .119.018.153.058a.22.22 0 0 1 .052.154v.307c0 .015.001.029.006.037.005.01.014.018.025.023.008.001.016.005.025.007.01.004.021.005.033.007v.047zM14.953 13.612a.803.803 0 0 1-.054.068.379.379 0 0 1-.156.089.452.452 0 0 1-.259-.014.303.303 0 0 1-.111-.071.256.256 0 0 1-.065-.106.37.37 0 0 1 .002-.254.319.319 0 0 1 .173-.175.445.445 0 0 1 .29-.007.253.253 0 0 1 .094.06.213.213 0 0 1 .052.084.322.322 0 0 1 .017.103v.039h-.425c0 .087.017.15.049.196.033.047.088.067.158.067.04 0 .075-.01.106-.033a.301.301 0 0 0 .081-.082l.048.036zm-.24-.239a.703.703 0 0 0-.004-.078.398.398 0 0 0-.013-.064.114.114 0 0 0-.03-.044.069.069 0 0 0-.047-.016c-.032 0-.058.018-.076.049a.32.32 0 0 0-.032.155l.202-.002zM15.303 13.784a.412.412 0 0 1-.119-.02.446.446 0 0 1-.09-.037l-.019.043h-.049l-.008-.235h.046a.31.31 0 0 0 .081.126.308.308 0 0 0 .067.05.191.191 0 0 0 .081.018.145.145 0 0 0 .086-.021c.018-.016.027-.037.027-.068a.07.07 0 0 0-.013-.043.075.075 0 0 0-.035-.027.177.177 0 0 0-.053-.02l-.072-.022-.072-.025a.235.235 0 0 1-.109-.1.187.187 0 0 1-.017-.082.17.17 0 0 1 .074-.144.32.32 0 0 1 .195-.054c.038 0 .073.002.104.011.031.007.059.016.081.023l.014-.034h.047l.011.213h-.043a.297.297 0 0 0-.076-.113.176.176 0 0 0-.115-.047.13.13 0 0 0-.076.02c-.019.012-.027.03-.027.055 0 .032.015.057.04.071a.64.64 0 0 0 .114.039.38.38 0 0 1 .164.079.17.17 0 0 1 .051.126c0 .07-.025.122-.08.158a.34.34 0 0 1-.21.06zM15.964 13.784a.404.404 0 0 1-.121-.02.423.423 0 0 1-.09-.037l-.019.043h-.048l-.008-.235h.045a.46.46 0 0 0 .031.065.375.375 0 0 0 .117.111.196.196 0 0 0 .082.018.151.151 0 0 0 .087-.021c.018-.016.025-.037.025-.068 0-.017-.002-.03-.012-.043a.075.075 0 0 0-.035-.027.177.177 0 0 0-.053-.02l-.071-.022-.074-.025a.235.235 0 0 1-.109-.1.174.174 0 0 1-.017-.082.17.17 0 0 1 .074-.144.318.318 0 0 1 .196-.054.41.41 0 0 1 .106.011.83.83 0 0 1 .08.023l.012-.034h.049l.01.213h-.045a.262.262 0 0 0-.074-.113.176.176 0 0 0-.115-.047.13.13 0 0 0-.076.02.063.063 0 0 0-.027.055c0 .032.014.057.041.071a.624.624 0 0 0 .113.039c.074.02.129.045.164.079a.165.165 0 0 1 .053.126c0 .07-.027.122-.082.158a.339.339 0 0 1-.209.06zM17.687 12.92c-.012.001-.027.002-.049.006a.15.15 0 0 0-.059.026c-.016.01-.027.029-.033.059a.458.458 0 0 0-.01.12v.635h-.113l-.555-.689v.419c0 .053.004.09.012.119a.117.117 0 0 0 .033.059.146.146 0 0 0 .053.024c.025.008.045.011.059.015v.05h-.381v-.05c.016-.001.033-.005.057-.01a.18.18 0 0 0 .053-.022.092.092 0 0 0 .033-.056.6.6 0 0 0 .008-.123v-.421a.2.2 0 0 0-.008-.061.146.146 0 0 0-.031-.049.148.148 0 0 0-.051-.032.217.217 0 0 0-.064-.019v-.049h.334l.488.602v-.338a.545.545 0 0 0-.01-.118.117.117 0 0 0-.035-.058.118.118 0 0 0-.055-.025.255.255 0 0 0-.057-.015v-.048h.381v.049zM18.454 13.749a.35.35 0 0 1-.144.032.212.212 0 0 1-.113-.023.12.12 0 0 1-.049-.065h-.006a.592.592 0 0 1-.039.036.225.225 0 0 1-.102.045.293.293 0 0 1-.076.008.187.187 0 0 1-.125-.044.142.142 0 0 1-.051-.113.17.17 0 0 1 .012-.069.194.194 0 0 1 .031-.052.16.16 0 0 1 .045-.032c.016-.009.035-.017.055-.026.037-.013.082-.027.135-.041a.665.665 0 0 0 .115-.041v-.061c0-.011 0-.023-.002-.04a.171.171 0 0 0-.01-.046.2.2 0 0 0-.027-.032.088.088 0 0 0-.051-.013.136.136 0 0 0-.047.008c-.012.005-.021.011-.029.016a.632.632 0 0 0 .012.038.14.14 0 0 1 .008.049.083.083 0 0 1-.006.027c-.004.011-.008.019-.016.025-.01.009-.021.014-.031.019a.169.169 0 0 1-.057.007c-.035 0-.061-.008-.08-.025a.087.087 0 0 1-.027-.066c0-.022.01-.046.029-.063a.27.27 0 0 1 .068-.046.488.488 0 0 1 .186-.04c.041 0 .078.004.111.008a.26.26 0 0 1 .092.029.203.203 0 0 1 .063.064.239.239 0 0 1 .021.108c0 .049 0 .104-.002.169l-.002.127a.1.1 0 0 0 .008.045.055.055 0 0 0 .025.025c.008.002.02.006.033.006a.677.677 0 0 0 .043.001v.046zm-.312-.328c-.023.009-.047.017-.068.028a.322.322 0 0 0-.057.032.122.122 0 0 0-.037.046.122.122 0 0 0-.014.063c0 .034.008.057.024.072a.067.067 0 0 0 .053.022.105.105 0 0 0 .059-.013c.014-.013.027-.023.039-.036l.001-.214zM19.749 13.763h-.373v-.047a.148.148 0 0 1 .027-.003.058.058 0 0 0 .025-.007c.01-.004.016-.01.018-.02.004-.011.004-.024.004-.039v-.293c0-.042-.006-.076-.023-.098a.08.08 0 0 0-.064-.033.11.11 0 0 0-.049.01l-.039.02a.136.136 0 0 0-.027.027c-.008.008-.012.016-.018.021v.338c0 .015.002.026.006.037.004.01.01.017.02.021a.081.081 0 0 0 .021.01c.01.004.017.005.027.007v.047h-.355v-.047c.008-.002.018-.002.029-.003a.057.057 0 0 0 .023-.007c.01-.004.014-.01.018-.019a.206.206 0 0 0 .004-.04v-.293a.177.177 0 0 0-.023-.098.084.084 0 0 0-.066-.033.102.102 0 0 0-.047.01l-.039.02a.267.267 0 0 0-.029.027l-.016.021v.338c0 .015.002.025.006.037.002.01.01.017.02.021a.07.07 0 0 0 .023.01c.008.004.018.005.027.007v.047h-.377v-.047l.033-.003a.082.082 0 0 0 .025-.007.046.046 0 0 0 .029-.023.09.09 0 0 0 .006-.036v-.365a.077.077 0 0 0-.01-.04.18.18 0 0 0-.025-.029.075.075 0 0 0-.027-.013.174.174 0 0 0-.039-.005v-.047l.299-.017.01.01v.088h.002a1.206 1.206 0 0 1 .088-.071.178.178 0 0 1 .059-.025.293.293 0 0 1 .08-.009c.047 0 .088.009.119.028.033.023.055.05.068.085h.006a.372.372 0 0 1 .045-.04c.017-.016.033-.027.049-.039a.275.275 0 0 1 .143-.034c.064 0 .111.018.146.054.035.038.051.091.051.159v.306c0 .015.002.029.008.039a.048.048 0 0 0 .023.021c.008.001.016.005.025.007.012.004.021.005.035.007v.05zM20.483 13.612a.547.547 0 0 1-.055.068.36.36 0 0 1-.254.102.454.454 0 0 1-.16-.027.312.312 0 0 1-.111-.071.28.28 0 0 1-.066-.106.393.393 0 0 1 .001-.254.378.378 0 0 1 .066-.103.357.357 0 0 1 .254-.1c.059 0 .107.008.144.021a.237.237 0 0 1 .092.06.209.209 0 0 1 .055.084c.01.034.016.066.016.103v.039h-.424c0 .087.016.15.049.196.033.047.086.067.156.067.041 0 .076-.01.107-.033a.272.272 0 0 0 .08-.082l.05.036zm-.24-.239c0-.025-.002-.051-.004-.078a.254.254 0 0 0-.014-.064.125.125 0 0 0-.029-.044.065.065 0 0 0-.047-.016.087.087 0 0 0-.076.049.31.31 0 0 0-.031.155l.201-.002zM10.698 14.39c0 .018-.005.028-.017.038a.07.07 0 0 1-.039.015.061.061 0 0 1-.055-.033.165.165 0 0 1-.017-.072c0-.031.005-.056.016-.076.011-.021.029-.031.056-.031.015 0 .027.005.039.015a.04.04 0 0 1 .017.035h-.031c-.001-.013-.01-.019-.026-.019-.014 0-.023.008-.029.024a.142.142 0 0 0-.008.052c0 .018.002.035.008.052.006.016.016.026.029.026.017 0 .025-.007.026-.024h.031zM11.322 14.336a.128.128 0 0 1-.017.067c-.014.025-.033.039-.057.039s-.042-.012-.055-.033a.144.144 0 0 1-.018-.073c0-.025.006-.049.018-.071.013-.024.03-.035.055-.035.024 0 .043.013.057.037a.136.136 0 0 1 .017.069zm-.032.001a.148.148 0 0 0-.006-.048c-.007-.02-.019-.029-.035-.029-.013 0-.021.007-.03.017a.133.133 0 0 0-.011.06c0 .021.002.037.008.053.006.018.017.024.033.024.015 0 .026-.011.033-.029a.115.115 0 0 0 .008-.048zM11.93 14.442h-.032v-.173l-.029.104h-.024l-.028-.104v.173h-.032v-.208h.048l.024.081.025-.081h.049v.208zM12.535 14.296c0 .02-.007.037-.02.047a.097.097 0 0 1-.053.015h-.037v.085h-.031v-.208h.069a.08.08 0 0 1 .053.016c.012.01.019.025.019.045zm-.031 0c0-.012-.004-.02-.012-.025a.062.062 0 0 0-.029-.006h-.037v.063h.037c.012 0 .021-.002.029-.007s.012-.013.012-.025zM13.146 14.442h-.031l-.015-.061h-.06l-.016.061h-.031l.058-.208h.038l.057.208zm-.053-.088-.021-.089-.024.089h.045zM13.745 14.442h-.032l-.075-.157v.157h-.028v-.208h.036l.071.149.001-.149h.027v.208zM14.359 14.234l-.059.111v.097h-.031v-.097l-.059-.111h.035l.039.077.04-.077h.035zM14.852 14.384a.053.053 0 0 1-.02.042.079.079 0 0 1-.046.017.081.081 0 0 1-.046-.017.044.044 0 0 1-.019-.038v-.006h.032c0 .022.011.032.033.032.023 0 .033-.011.033-.03a.025.025 0 0 0-.011-.022l-.035-.019a.109.109 0 0 1-.033-.022.044.044 0 0 1-.014-.034c0-.017.006-.032.017-.042a.068.068 0 0 1 .046-.016c.015 0 .029.005.041.015.013.01.019.023.019.036l-.032.005c0-.018-.009-.025-.027-.025-.01 0-.017.001-.023.005-.006.005-.009.011-.009.021 0 .007.002.012.005.017l.017.01.02.007c.018.008.03.018.036.023.01.011.016.024.016.041zM15.467 14.442h-.137v-.208h.03v.178h.106v.03zM16.075 14.336a.12.12 0 0 1-.018.067c-.012.025-.031.039-.057.039-.023 0-.041-.012-.054-.033a.145.145 0 0 1 0-.144c.013-.024.03-.035.054-.035.025 0 .045.013.057.037a.127.127 0 0 1 .018.069zm-.031.001a.148.148 0 0 0-.006-.048c-.008-.02-.019-.029-.037-.029-.012 0-.021.007-.027.017a.119.119 0 0 0-.013.06c0 .021.003.037.009.053.006.018.016.024.031.024.016 0 .025-.011.035-.029.004-.014.008-.028.008-.048zM16.679 14.429a.126.126 0 0 1-.06.014.072.072 0 0 1-.061-.03.13.13 0 0 1-.02-.076c0-.033.006-.059.02-.076.012-.021.033-.03.065-.03.016 0 .029.005.039.013.012.009.018.019.018.029l-.031.004c-.002-.011-.012-.016-.025-.016-.02 0-.033.007-.041.019a.127.127 0 0 0-.012.054c0 .024.004.043.01.059.008.016.021.023.043.023.004 0 .008 0 .014-.002a.027.027 0 0 1 .012-.003v-.052h-.043v-.03h.074v.1zM17.292 14.442h-.031l-.014-.061h-.061l-.014.061h-.032l.057-.208h.041l.054.208zm-.053-.088-.021-.089-.025.089h.046zM17.892 14.442h-.033l-.074-.157v.157h-.029v-.208h.037l.07.149.002-.149h.027v.208zM18.495 14.442h-.031v-.092h-.068v.092h-.031v-.208h.031v.084h.068v-.084h.031v.208zM19.101 14.442h-.127v-.208h.125v.03h-.092v.054h.08v.03h-.08v.063h.094v.031zM19.722 14.442h-.035l-.047-.085h-.027v.085h-.029v-.208h.061c.045 0 .066.021.066.062 0 .03-.016.05-.041.055l.052.091zm-.043-.147c0-.014-.004-.021-.01-.024a.07.07 0 0 0-.033-.006h-.023v.063h.025c.027-.001.041-.012.041-.033zM20.315 14.442h-.127v-.208h.125v.03h-.092v.054h.08v.03h-.08v.063h.094v.031z" style="fill:#4d4d4d"/></svg>