<svg xmlns="http://www.w3.org/2000/svg" xmlns:xlink="http://www.w3.org/1999/xlink" viewBox="0 0 443.49 304.54"><defs><style>.cls-1{isolation:isolate;}.cls-2,.cls-3,.cls-4,.cls-6,.cls-7,.cls-8{mix-blend-mode:multiply;}.cls-2{fill:url(#Degradado_sin_nombre_36);}.cls-3{fill:url(#Degradado_sin_nombre_36-2);}.cls-4{fill:url(#Degradado_sin_nombre_36-3);}.cls-5{fill:#e50318;}.cls-6{fill:url(#Degradado_sin_nombre_36-4);}.cls-7{fill:url(#Degradado_sin_nombre_36-5);}.cls-8{fill:url(#Degradado_sin_nombre_36-6);}.cls-9{fill:none;stroke:#fff;stroke-linecap:round;stroke-linejoin:round;}</style><radialGradient id="Degradado_sin_nombre_36" cx="441.62" cy="-111.62" r="29.79" gradientTransform="matrix(0.67, 0.74, 2.48, -1.89, 68.53, -317.72)" gradientUnits="userSpaceOnUse"><stop offset="0" stop-color="#e99a03"/><stop offset="1" stop-color="#fff" stop-opacity="0"/></radialGradient><radialGradient id="Degradado_sin_nombre_36-2" cx="437.41" cy="-104.43" r="29.79" xlink:href="#Degradado_sin_nombre_36"/><radialGradient id="Degradado_sin_nombre_36-3" cx="441.62" cy="-90.67" r="29.79" xlink:href="#Degradado_sin_nombre_36"/><radialGradient id="Degradado_sin_nombre_36-4" cx="747.77" cy="-42.62" r="22.39" gradientTransform="matrix(0.26, 0.94, 3.12, -0.74, 100.6, -507.82)" xlink:href="#Degradado_sin_nombre_36"/><radialGradient id="Degradado_sin_nombre_36-5" cx="744.61" cy="-37.21" r="22.39" gradientTransform="matrix(0.26, 0.94, 3.12, -0.74, 100.6, -507.82)" xlink:href="#Degradado_sin_nombre_36"/><radialGradient id="Degradado_sin_nombre_36-6" cx="747.78" cy="-26.87" r="22.39" gradientTransform="matrix(0.26, 0.94, 3.12, -0.74, 100.6, -507.82)" xlink:href="#Degradado_sin_nombre_36"/></defs><g class="cls-1"><g id="Layer_1" data-name="Layer 1"><path class="cls-2" d="M14.63,277.89c11.06,12.22,53.11-3.12,93.93-34.25s64.93-66.29,53.87-78.51-53.11,3.12-93.93,34.26-64.93,66.28-53.87,78.5" transform="translate(-11.94 -7.73)"/><path class="cls-3" d="M29.63,261.16C40.7,273.38,82.75,258,123.56,226.9s64.94-66.28,53.88-78.5-53.12,3.11-93.93,34.25-64.94,66.29-53.88,78.51" transform="translate(-11.94 -7.73)"/><path class="cls-4" d="M160.53,204c40.81-31.14,64.93-66.29,53.87-78.51s-53.11,3.12-93.93,34.26S55.54,226,66.6,238.24,119.71,235.13,160.53,204Z" transform="translate(-11.94 -7.73)"/><path class="cls-5" d="M51.13,256c2.16-12.87,89.08-248.3,89.08-248.3L249,32.17Z" transform="translate(-11.94 -7.73)"/><path class="cls-6" d="M168.94,244.36c38.61-9.14,67.29-25.93,64.05-37.5s-37.15-13.54-75.75-4.4S90,228.39,93.18,240,130.33,253.5,168.94,244.36Z" transform="translate(-11.94 -7.73)"/><path class="cls-7" d="M185,237.4c38.61-9.14,67.29-25.93,64.06-37.5s-37.15-13.54-75.76-4.4S106,221.43,109.23,233,146.38,246.55,185,237.4Z" transform="translate(-11.94 -7.73)"/><path class="cls-8" d="M218.1,232.72c38.61-9.14,67.29-25.93,64.06-37.5s-37.15-13.54-75.76-4.4-67.29,25.93-64.06,37.5S179.49,241.86,218.1,232.72Z" transform="translate(-11.94 -7.73)"/><path class="cls-5" d="M125.87,238.79c6-8.12,126-144.58,126-144.58l61.92,62.86Z" transform="translate(-11.94 -7.73)"/><path class="cls-9" d="M378.12,150.09" transform="translate(-11.94 -7.73)"/><text x="-11.94" y="-7.73"/></g></g></svg>