<svg id="visual" viewBox="0 0 1366 484" width="1366" height="484" xmlns="http://www.w3.org/2000/svg" xmlns:xlink="http://www.w3.org/1999/xlink" version="1.1"><rect x="0" y="0" width="1366" height="484" fill="#f6f4f1"></rect><defs><linearGradient id="grad1_0" x1="64.6%" y1="100%" x2="100%" y2="0%"><stop offset="-6.4462809917355415%" stop-color="#fd816c" stop-opacity="1"></stop><stop offset="106.44628099173555%" stop-color="#fd816c" stop-opacity="1"></stop></linearGradient></defs><defs><linearGradient id="grad1_1" x1="64.6%" y1="100%" x2="100%" y2="0%"><stop offset="-6.4462809917355415%" stop-color="#fd816c" stop-opacity="1"></stop><stop offset="106.44628099173555%" stop-color="#f6f4f1" stop-opacity="1"></stop></linearGradient></defs><defs><linearGradient id="grad2_0" x1="0%" y1="100%" x2="35.4%" y2="0%"><stop offset="-6.4462809917355415%" stop-color="#fd816c" stop-opacity="1"></stop><stop offset="106.44628099173555%" stop-color="#fd816c" stop-opacity="1"></stop></linearGradient></defs><defs><linearGradient id="grad2_1" x1="0%" y1="100%" x2="35.4%" y2="0%"><stop offset="-6.4462809917355415%" stop-color="#f6f4f1" stop-opacity="1"></stop><stop offset="106.44628099173555%" stop-color="#fd816c" stop-opacity="1"></stop></linearGradient></defs><g transform="translate(1366, 484)"><path d="M-193.6 0C-189.2 -35 -184.8 -70.1 -167.7 -96.8C-150.5 -123.5 -120.6 -142 -90.5 -156.8C-60.4 -171.5 -30.2 -182.6 0 -193.6L0 0Z" fill="#f6c19e"></path><path d="M-96.8 0C-94.6 -17.5 -92.4 -35 -83.8 -48.4C-75.3 -61.8 -60.3 -71 -45.3 -78.4C-30.2 -85.8 -15.1 -91.3 0 -96.8L0 0Z" fill="#fd816c"></path></g><g transform="translate(0, 0)"><path d="M193.6 0C181.2 29.4 168.7 58.8 154.2 89C139.6 119.2 122.8 150.1 96.8 167.7C70.8 185.2 35.4 189.4 0 193.6L0 0Z" fill="#f6c19e"></path><path d="M96.8 0C90.6 14.7 84.4 29.4 77.1 44.5C69.8 59.6 61.4 75.1 48.4 83.8C35.4 92.6 17.7 94.7 0 96.8L0 0Z" fill="#fd816c"></path></g></svg>