<svg id="visual" viewBox="0 0 1366 484" width="1366" height="484" xmlns="http://www.w3.org/2000/svg" xmlns:xlink="http://www.w3.org/1999/xlink" version="1.1"><rect x="0" y="0" width="1366" height="484" fill="#f6f4f1"></rect><defs><linearGradient id="grad1_0" x1="64.6%" y1="100%" x2="100%" y2="0%"><stop offset="-6.4462809917355415%" stop-color="#f2cc13" stop-opacity="1"></stop><stop offset="106.44628099173555%" stop-color="#f2cc13" stop-opacity="1"></stop></linearGradient></defs><defs><linearGradient id="grad1_1" x1="64.6%" y1="100%" x2="100%" y2="0%"><stop offset="-6.4462809917355415%" stop-color="#f2cc13" stop-opacity="1"></stop><stop offset="106.44628099173555%" stop-color="#f6f4f1" stop-opacity="1"></stop></linearGradient></defs><defs><linearGradient id="grad2_0" x1="0%" y1="100%" x2="35.4%" y2="0%"><stop offset="-6.4462809917355415%" stop-color="#f2cc13" stop-opacity="1"></stop><stop offset="106.44628099173555%" stop-color="#f2cc13" stop-opacity="1"></stop></linearGradient></defs><defs><linearGradient id="grad2_1" x1="0%" y1="100%" x2="35.4%" y2="0%"><stop offset="-6.4462809917355415%" stop-color="#f6f4f1" stop-opacity="1"></stop><stop offset="106.44628099173555%" stop-color="#f2cc13" stop-opacity="1"></stop></linearGradient></defs><g transform="translate(1366, 484)"><path d="M-193.6 0C-186.8 -33.3 -180 -66.6 -163.7 -94.5C-147.3 -122.4 -121.4 -145 -92.5 -160.2C-63.6 -175.4 -31.8 -183.2 0 -191L0 0Z" fill="#ffde91"></path><path d="M-96.8 0C-93.4 -16.6 -90 -33.3 -81.8 -47.3C-73.7 -61.2 -60.7 -72.5 -46.3 -80.1C-31.8 -87.7 -15.9 -91.6 0 -95.5L0 0Z" fill="#f2cc13"></path></g><g transform="translate(0, 0)"><path d="M187 0C184.8 33.9 182.6 67.8 167.7 96.8C152.7 125.8 125.1 149.8 95 164.5C64.9 179.3 32.5 184.6 0 190L0 0Z" fill="#ffde91"></path><path d="M93.5 0C92.4 17 91.3 33.9 83.8 48.4C76.4 62.9 62.5 74.9 47.5 82.3C32.5 89.6 16.2 92.3 0 95L0 0Z" fill="#f2cc13"></path></g></svg>