<svg id="visual" viewBox="0 0 1366 484" width="1366" height="484" xmlns="http://www.w3.org/2000/svg" xmlns:xlink="http://www.w3.org/1999/xlink" version="1.1"><rect x="0" y="0" width="1366" height="484" fill="#f6f4f1"></rect><defs><linearGradient id="grad1_0" x1="64.6%" y1="0%" x2="100%" y2="100%"><stop offset="-6.4462809917355415%" stop-color="#fead50" stop-opacity="1"></stop><stop offset="106.44628099173555%" stop-color="#fead50" stop-opacity="1"></stop></linearGradient></defs><defs><linearGradient id="grad1_1" x1="64.6%" y1="0%" x2="100%" y2="100%"><stop offset="-6.4462809917355415%" stop-color="#fead50" stop-opacity="1"></stop><stop offset="106.44628099173555%" stop-color="#f6f4f1" stop-opacity="1"></stop></linearGradient></defs><defs><linearGradient id="grad2_0" x1="0%" y1="0%" x2="35.4%" y2="100%"><stop offset="-6.4462809917355415%" stop-color="#fead50" stop-opacity="1"></stop><stop offset="106.44628099173555%" stop-color="#fead50" stop-opacity="1"></stop></linearGradient></defs><defs><linearGradient id="grad2_1" x1="0%" y1="0%" x2="35.4%" y2="100%"><stop offset="-6.4462809917355415%" stop-color="#f6f4f1" stop-opacity="1"></stop><stop offset="106.44628099173555%" stop-color="#fead50" stop-opacity="1"></stop></linearGradient></defs><g transform="translate(1366, 0)"><path d="M0 193.6C-34 188.6 -68 183.6 -96.8 167.7C-125.6 151.7 -149.3 124.8 -164.5 95C-179.8 65.2 -186.7 32.6 -193.6 0L0 0Z" fill="#fad39e"></path><path d="M0 96.8C-17 94.3 -34 91.8 -48.4 83.8C-62.8 75.9 -74.6 62.4 -82.3 47.5C-89.9 32.6 -93.4 16.3 -96.8 0L0 0Z" fill="#fead50"></path></g><g transform="translate(0, 484)"><path d="M0 -193.6C34.3 -188.8 68.7 -184 96.8 -167.7C124.9 -151.3 146.8 -123.4 161.9 -93.5C177 -63.6 185.3 -31.8 193.6 0L0 0Z" fill="#fad39e"></path><path d="M0 -96.8C17.2 -94.4 34.3 -92 48.4 -83.8C62.5 -75.7 73.4 -61.7 81 -46.8C88.5 -31.8 92.7 -15.9 96.8 0L0 0Z" fill="#fead50"></path></g></svg>